<svg width="23" height="23" viewBox="0 0 23 23" fill="none" xmlns="http://www.w3.org/2000/svg">
<g clip-path="url(#clip0)">
<path d="M22.7242 18.7049L13.3831 2.12271C12.5866 0.674509 10.4143 0.674509 9.61773 2.12271L0.276701 18.7049C-0.519801 20.1531 0.493952 21.9634 2.15941 21.9634H20.7691C22.507 21.891 23.5207 20.1531 22.7242 18.7049Z" fill="#E24C4B"/>
<path d="M11.5005 3.20888L20.8415 19.7911H2.15942L11.5005 3.20888Z" fill="white"/>
<path d="M9.97986 10.8121L10.5592 14.6499C10.6316 15.0843 10.9936 15.4464 11.5005 15.4464C11.935 15.4464 12.3695 15.0843 12.4419 14.6499L13.0212 10.8121C13.166 9.87072 12.4419 9.07422 11.5005 9.07422C10.5591 9.07417 9.90741 9.87072 9.97986 10.8121Z" fill="#3F4448"/>
<path d="M11.5005 17.9808C11.9805 17.9808 12.3695 17.5917 12.3695 17.1118C12.3695 16.6319 11.9805 16.2429 11.5005 16.2429C11.0206 16.2429 10.6316 16.6319 10.6316 17.1118C10.6316 17.5917 11.0206 17.9808 11.5005 17.9808Z" fill="#3F4448"/>
</g>
<defs>
<clipPath id="clip0">
<rect width="23" height="23" fill="white"/>
</clipPath>
</defs>
</svg>
