<?xml version="1.0" encoding="iso-8859-1"?>
<!-- Generator: Adobe Illustrator 19.0.0, SVG Export Plug-In . SVG Version: 6.00 Build 0)  -->
<svg version="1.1" id="Capa_1" xmlns="http://www.w3.org/2000/svg" xmlns:xlink="http://www.w3.org/1999/xlink" x="0px" y="0px"
	 viewBox="0 0 512.058 512.058" style="enable-background:new 0 0 512.058 512.058;" xml:space="preserve">
<polygon style="fill:#E8EAE9;" points="388.267,309.706 41.6,301.173 16,348.106 388.267,348.106 "/>
<path style="fill:#55C0EB;" d="M136.533,143.306c0,0-10.667,3.2-23.467,7.467s-34.133,12.8-38.4,14.933
	c-4.267,2.133-5.333,13.867-6.4,20.267c-1.067,6.4-3.2,18.133-3.2,18.133l8.533,93.867l71.467,5.333c0,0-2.133-93.867-4.267-117.333
	S136.533,143.306,136.533,143.306z"/>
<path style="fill:#FFD15C;" d="M137.6,113.44c0,0,0,44.8,14.933,57.6l9.6,25.6l30.933-17.067c0,0,1.067-22.4,2.133-29.867
	c2.133-7.467,3.2-14.933,3.2-14.933l8.533-43.733C206.933,92.106,141.867,78.24,137.6,113.44z"/>
<path style="fill:#344A5E;" d="M194.133,135.84l4.267-1.067c0,0,2.133-7.467,5.333-12.8c3.2-4.267,7.467-1.067,7.467-1.067
	s9.6-18.133,6.4-37.333s-29.867-33.067-45.867-30.933c-17.067,2.133-29.867,13.867-36.267,26.667s0,27.733,1.067,29.867
	s1.067,4.267,1.067,4.267s0-3.2,2.133-5.333c0,0,17.067,4.267,32-1.067c14.933-5.333,14.933-5.333,14.933-5.333
	s-3.2,10.667,4.267,16c3.2,2.133,4.267,5.333,4.267,9.6L194.133,135.84z"/>
<ellipse transform="matrix(0.4136 -0.9105 0.9105 0.4136 2.6399 260.5407)" style="fill:#FFD15C;" cx="203.577" cy="128.221" rx="12.8" ry="6.4"/>
<path style="fill:#F7B64C;" d="M195.2,148.64c-5.333,8.533-20.267,20.267-29.867,24.533c-8.533,3.2-12.8-1.067-12.8-1.067
	l5.333,14.933c4.267-2.133,9.6-5.333,16-11.733C186.667,163.573,195.2,148.64,195.2,148.64L195.2,148.64z"/>
<polygon style="fill:#CED6E0;" points="145.067,306.506 189.867,315.04 202.667,183.84 173.867,182.773 169.6,182.773 140.8,183.84 
	"/>
<g>
	<path style="fill:#F3705A;" d="M187.733,189.173c0,0-9.6,16-10.667,22.4c-2.133-2.133-5.333-1.067-9.6,0
		c0,0-4.267-20.267-17.067-26.667l19.2-3.2h4.267L187.733,189.173z"/>
	<path style="fill:#F3705A;" d="M173.867,194.506L176,211.573c0,0,8.533,35.2,10.667,49.067c3.2,13.867,3.2,55.467,3.2,55.467
		l-34.133-3.2c0,0-1.067-53.333,2.133-66.133c2.133-12.8,8.533-35.2,8.533-35.2L173.867,194.506z"/>
</g>
<g>
	<path style="fill:#F3F3F3;" d="M195.2,148.64c0,0-4.267,21.333-22.4,34.133l25.6,16l1.067-42.667L195.2,148.64z"/>
	<path style="fill:#F3F3F3;" d="M152.533,171.04l16,11.733l-27.733,16l-4.267-51.2C137.6,148.64,147.2,166.773,152.533,171.04z"/>
</g>
<path style="fill:#8AD7F8;" d="M145.067,319.306c0,0-3.2-75.733-7.467-97.067s-8.533-52.267-8.533-52.267l4.267-4.267L128,163.573
	c0,0,5.333-17.067,11.733-25.6c1.067,9.6,4.267,20.267,8.533,27.733c0,23.467,0,60.8,4.267,75.733
	C155.733,257.44,150.4,304.373,145.067,319.306z"/>
<path style="fill:#55C0EB;" d="M202.667,141.173c0,0,19.2,3.2,29.867,7.467c10.667,4.267,18.133,6.4,18.133,6.4s3.2,0,6.4,8.533
	c3.2,8.533,9.6,48,11.733,55.467s11.733,59.733,11.733,64c-1.067,4.267-9.6,23.467-53.333,34.133c0,0-3.2-10.667-13.867-17.067
	c-11.733-6.4-18.133-3.2-18.133-3.2l-7.467,2.133L202.667,141.173z"/>
<path style="fill:#8AD7F8;" d="M220.8,179.573c0,0-17.067,55.467-22.4,70.4c-5.333,16-14.933,65.067-14.933,65.067s1.067-6.4,0-22.4
	c-1.067-16,0-54.4,1.067-62.933c1.067-8.533,8.533-50.133,9.6-60.8c2.133-10.667,0-21.333,0-21.333l0,0
	c1.067-3.2,2.133-7.467,2.133-9.6l1.067,1.067c2.133,1.067,4.267,0,6.4-2.133c4.267,7.467,9.6,26.667,9.6,26.667l-4.267,7.467
	L220.8,179.573z"/>
<path style="fill:#4FB0E0;" d="M189.867,294.773C189.867,294.773,190.933,294.773,189.867,294.773c1.067-2.133,2.133-2.133,3.2-3.2
	c1.067-1.067,3.2-2.133,5.333-3.2c2.133-1.067,4.267-2.133,7.467-3.2c3.2-1.067,5.333-1.067,8.533-2.133
	c1.067,0,3.2-1.067,4.267-1.067c1.067-1.067,3.2-1.067,4.267-2.133c3.2-2.133,5.333-4.267,7.467-7.467
	c1.067-1.067,1.067-3.2,1.067-5.333c0-1.067,0-2.133,0-3.2v-3.2c-1.067-7.467-1.067-14.933-1.067-22.4c0-3.2,0-7.467,1.067-10.667
	c1.067-3.2,2.133-5.333,3.2-8.533c4.267-10.667,6.4-17.067,6.4-17.067s0,2.133-1.067,5.333s-2.133,7.467-4.267,12.8
	c0,1.067-1.067,3.2-1.067,4.267c0,1.067-1.067,3.2-1.067,4.267c-1.067,3.2-1.067,6.4-1.067,9.6s0,7.467,0,10.667
	c0,3.2,1.067,7.467,1.067,10.667v3.2c0,1.067,0,2.133,0,3.2c0,2.133-1.067,4.267-1.067,5.333c-2.133,3.2-5.333,6.4-7.467,7.467
	c-1.067,1.067-3.2,2.133-4.267,2.133c-2.133,1.067-3.2,1.067-5.333,1.067c-3.2,1.067-6.4,1.067-8.533,2.133
	c-3.2,1.067-5.333,1.067-7.467,2.133c-2.133,1.067-3.2,2.133-5.333,3.2C192,293.706,189.867,294.773,189.867,294.773z"/>
<path style="fill:#FFD15C;" d="M157.867,299.04c0,0,1.067,7.467,10.667,11.733c9.6,4.267,36.267,3.2,36.267,3.2
	s-9.6-17.067-16-20.267c-6.4-3.2-13.867-4.267-13.867-4.267L157.867,299.04z"/>
<path style="fill:#F7B64C;" d="M176,301.173l-1.067,1.067l0,0l0,0v1.067c-1.067,1.067-1.067,2.133-2.133,3.2l-1.067,1.067h-1.067
	l-1.067-1.067v-1.067c0-1.067,1.067-2.133,1.067-3.2l0,0c0,0,0,0,0-1.067v-1.067v-2.133l1.067-2.133l-1.067,2.133
	c-1.067,2.133-3.2,4.267-4.267,5.333c-1.067,1.067-1.067,2.133-2.133,3.2c0,0,0,0,0,1.067l0,0c0,0,0,0,0-1.067
	c1.067-1.067,1.067-2.133,2.133-3.2c1.067-1.067,2.133-2.133,3.2-3.2l0,0l0,0l0,0c-1.067,1.067-1.067,2.133-1.067,4.267
	c0,1.067,0,1.067,0,2.133l0,0l0,0l0,0l0,0l0,0l0,0l0,0l0,0l0,0l0,0h1.067c1.067,0,2.133,0,2.133,0c1.067,0,1.067-1.067,2.133-1.067
	c1.067-1.067,2.133-2.133,2.133-3.2V301.173L176,301.173L176,301.173C176,302.24,177.067,302.24,176,301.173
	c3.2-1.067,4.267-2.133,6.4-4.267h3.2c1.067,0,1.067,0,2.133,0h1.067l0,0c0,0,0,1.067-1.067,1.067v1.067v1.067c0,0,0,0,0,1.067
	c-1.067,2.133-1.067,3.2-2.133,5.333l0,0l0,0c0,0,0,0,1.067,0h1.067c1.067,0,1.067,0,2.133,0h1.067H192h1.067l0,0l0,0
	c1.067-1.067,1.067-1.067,2.133-2.133c0-1.067,1.067-1.067,1.067-2.133c0,1.067,0,2.133,0,2.133c0,1.067,0,1.067,0,2.133v1.067
	v1.067v1.067v1.067v1.067c0,0,0,0,0,1.067c0,0,0,0,1.067,1.067c0,0,0,0,1.067,1.067c0,0,0,0,1.067,1.067h1.067l0,0h-1.067
	c0,0,0,0-1.067-1.067c0,0,0,0-1.067-1.067c0,0,0,0-1.067-1.067c0,0,0,0,0-1.067v-1.067v-1.067v-1.067v-1.067v-1.067
	c0-1.067,0-1.067,0-2.133c0-1.067,0-2.133,0-3.2v-1.067l-1.067,1.067c0,1.067-1.067,2.133-2.133,3.2
	c-1.067,1.067-1.067,2.133-2.133,2.133l0,0l0,0c0,0,0,0-1.067,0c0,0,0,0-1.067,0c0,0,0,0-1.067,0h-1.067c0,0,0,0-1.067,0l0,0
	c1.067-2.133,2.133-3.2,2.133-5.333c0,0,0,0,0-1.067v-1.067v-1.067c0,0,0-1.067,1.067-1.067c0,0,0,0,0-1.067v-1.067l0,0h-8.533
	c-1.067,1.067-1.067,1.067-2.133,2.133C178.133,299.04,177.067,300.106,176,301.173z"/>
<path style="fill:#344A5E;" d="M282.667,316.106l-8.533,5.333c0,0-14.933-12.8-11.733-24.533
	C265.6,285.173,288,299.04,282.667,316.106z"/>
<path style="fill:#415A6B;" d="M376.533,272.373c0,0-21.333,14.933-22.4,19.2c-1.067,5.333-1.067,6.4-5.333,9.6
	c-4.267,3.2-12.8,5.333-12.8,5.333s1.067,3.2-5.333,5.333c-6.4,2.133-55.467,8.533-55.467,8.533s9.6-8.533,6.4-13.867
	c-3.2-6.4-28.8-13.867-28.8-13.867s8.533-5.333,19.2-6.4c10.667-2.133,16-5.333,19.2-5.333s9.6-7.467,13.867-11.733
	c5.333-4.267,12.8-13.867,12.8-13.867l33.067-54.4L376.533,272.373z"/>
<path style="fill:#2D4354;" d="M362.667,235.04c-10.667-1.067-20.267-1.067-30.933-1.067l-12.8,22.4c0,0-7.467,9.6-12.8,13.867
	c-1.067,1.067-1.067,1.067-2.133,2.133c13.867,1.067,26.667,0,39.467-3.2c3.2-1.067,7.467-2.133,10.667,0
	c2.133,2.133,3.2,5.333,3.2,7.467c0,3.2,1.067,6.4,1.067,9.6c6.4-6.4,17.067-13.867,17.067-13.867L362.667,235.04z"/>
<path style="fill:#FFD15C;" d="M299.733,93.173L297.6,103.84c0,0-1.067,8.533,0,10.667s6.4,5.333,6.4,7.467s-4.267,16-4.267,16
	s-1.067,5.333,6.4,5.333c0,0-2.133,8.533,2.133,7.467c0,0-2.133,2.133,0,4.267s3.2,8.533,3.2,11.733
	c-1.067,3.2,7.467,5.333,14.933,3.2c8.533-2.133,14.933-5.333,14.933-5.333s12.8,14.933,23.467,18.133
	c11.733,2.133,11.733,2.133,11.733,2.133l27.733-37.333c0,0-11.733-17.067-13.867-29.867
	C390.4,105.973,312.533,87.84,299.733,93.173z"/>
<path style="fill:#F7B64C;" d="M342.4,165.706c0,0,5.333,6.4,12.8,11.733c6.4-13.867,9.6-35.2,9.6-35.2
	C356.267,155.04,342.4,165.706,342.4,165.706z"/>
<path style="fill:#344A5E;" d="M512,364.106h-68.267h-67.2c0,0,8.533-50.133-12.8-90.667c-12.8-27.733-13.867-61.867-10.667-73.6
	c3.2-12.8,50.133-66.133,50.133-66.133c0,1.067,8.533,5.333,8.533,5.333s8.533-1.067,22.4,7.467
	c13.867,8.533,39.467,39.467,43.733,57.6c4.267,17.067,7.467,55.467,9.6,71.467s5.333,23.467,6.4,30.933c0,7.467,0,9.6,3.2,12.8
	C499.2,321.44,513.067,348.106,512,364.106z"/>
<path style="fill:#415A6B;" d="M356.267,251.04c0,0-4.267-40.533,4.267-56.533c8.533-14.933,36.267-51.2,45.867-58.667
	l-10.667-10.667c0,0-8.533,8.533-14.933,16c-6.4,7.467-13.867,17.067-19.2,29.867c-6.4,13.867-11.733,21.333-12.8,37.333
	C347.733,223.306,356.267,251.04,356.267,251.04z"/>
<path style="fill:#FFD15C;" d="M232.533,256.373c0,0-19.2-5.333-25.6-6.4c-6.4-1.067-8.533-1.067-11.733,1.067
	c-4.267,2.133-8.533,3.2-21.333,3.2s-18.133-1.067-18.133-1.067s-6.4,2.133-8.533,3.2l-3.2,4.267c0,0,2.133,6.4-3.2,5.333
	l-2.133-3.2c0,0-2.133-2.133-1.067-4.267s2.133-7.467,3.2-8.533c1.067-1.067,8.533-4.267,8.533-4.267l-1.067-1.067
	c0,0-6.4,1.067-9.6,1.067l-1.067,1.067c0,0,2.133,1.067,2.133,3.2c0,1.067-2.133,5.333-2.133,5.333s-4.267-1.067-5.333-3.2
	c-1.067-2.133-5.333-25.6-5.333-25.6s4.267-3.2,8.533-3.2c4.267-1.067,9.6-1.067,12.8-2.133c3.2-1.067,10.667-2.133,14.933-1.067
	c4.267,1.067,20.267,5.333,22.4,5.333c2.133,0,37.333,1.067,37.333,1.067L232.533,256.373z"/>
<g>
	<path style="fill:#F7B64C;" d="M126.933,238.24L126.933,238.24c1.067-1.067,2.133-1.067,3.2-1.067c1.067,0,2.133-1.067,3.2-1.067
		c1.067,0,2.133,0,4.267-1.067c2.133,0,5.333,0,7.467-1.067c2.133,0,3.2,0,3.2,0s0,0-1.067,0s-1.067,0-2.133,1.067
		c-1.067,0-2.133,0-3.2,1.067c-1.067,0-2.133,0-4.267,0s-5.333,1.067-7.467,1.067C128,237.173,126.933,238.24,126.933,238.24z"/>
	<path style="fill:#F7B64C;" d="M148.267,224.373L148.267,224.373c-1.067,0-2.133,1.067-3.2,1.067s-2.133,1.067-3.2,1.067
		c-1.067,0-3.2,0-4.267,0c-1.067,0-1.067,0-2.133,0c-1.067,0-1.067,0-2.133,0c-1.067,0-2.133,0-3.2,1.067
		c-2.133,1.067-3.2,1.067-3.2,1.067s0,0,1.067,0c1.067,0,1.067-1.067,2.133-1.067c1.067,0,2.133-1.067,3.2-1.067
		c1.067,0,1.067,0,2.133,0s1.067,0,2.133,0s1.067,0,2.133,0s1.067,0,2.133,0s2.133,0,3.2,0
		C146.133,225.44,147.2,225.44,148.267,224.373L148.267,224.373z"/>
</g>
<path style="fill:#415A6B;" d="M219.733,222.24c0,0,12.8,45.867,8.533,50.133c0,0,2.133,1.067,7.467,0
	c5.333-1.067,26.667-3.2,33.067-3.2s56.533-4.267,75.733-7.467c19.2-3.2,60.8-20.267,67.2-23.467
	c5.333-2.133,33.067-6.4,38.4-21.333c5.333-13.867,3.2-43.733-5.333-57.6c-8.533-13.867-28.8-23.467-38.4-18.133
	c-10.667,5.333-26.667,20.267-27.733,44.8c0,0,0,4.267-3.2,6.4c-3.2,2.133-24.533,10.667-30.933,16
	c-6.4,5.333-10.667,8.533-13.867,7.467c-4.267-1.067-5.333-2.133-14.933-2.133c-10.667,1.067-30.933,4.267-44.8,6.4
	C254.933,222.24,219.733,222.24,219.733,222.24z"/>
<path style="fill:#CED6E0;" d="M222.933,316.106l-102.4-11.733l-8.533,19.2C103.467,324.64,218.667,320.373,222.933,316.106z"/>
<path id="SVGCleanerId_0" style="fill:#415A6B;" d="M140.8,323.573l4.267-3.2l77.867-3.2c0,0,1.067,6.4-5.333,8.533
	c-6.4,2.133-73.6,8.533-73.6,8.533L140.8,323.573z"/>
<path id="SVGCleanerId_1" style="fill:#344A5E;" d="M22.4,306.506l121.6,12.8l-1.067,12.8l-115.2-12.8
	c-1.067,0-2.133-1.067-3.2-2.133L22.4,306.506z"/>
<path id="SVGCleanerId_2" style="fill:#344A5E;" d="M0,199.84c0,0,2.133-4.267,9.6-4.267c6.4,0,115.2,8.533,115.2,8.533
	s4.267,0,5.333,6.4C132.267,219.04,147.2,315.04,147.2,318.24c0,3.2-3.2,3.2-6.4,4.267s-116.267-12.8-116.267-12.8
	c-2.133-1.067-3.2,0-5.333-7.467C16,289.44,0,199.84,0,199.84z"/>
<path id="SVGCleanerId_3" style="fill:#415A6B;" d="M0,200.906c0,0,0-4.267,6.4-4.267s114.133,8.533,114.133,8.533
	s4.267,0,5.333,6.4c2.133,8.533,20.267,103.467,20.267,106.667c0,3.2-3.2,3.2-6.4,3.2c-3.2,1.067-115.2-12.8-115.2-12.8
	c-2.133-1.067-3.2,0-5.333-7.467C14.933,290.506,0,200.906,0,200.906z"/>
<path style="fill:#415A6B;" d="M349.867,130.506h6.4c0,0-1.067-8.533,5.333-13.867c5.333-5.333,10.667-4.267,13.867-1.067
	c1.067,2.133,5.333,7.467,7.467,10.667c1.067,2.133,4.267,2.133,5.333,1.067l6.4-3.2c0,0-1.067-10.667,0-17.067
	s1.067-39.467-24.533-52.267c-25.6-13.867-57.6,5.333-67.2,9.6s-13.867,9.6-13.867,22.4c0,8.533,9.6,17.067,10.667,17.067
	c1.067,0,9.6,3.2,23.467,1.067c13.867-2.133,19.2-3.2,22.4,5.333C349.867,118.773,349.867,130.506,349.867,130.506z"/>
<path style="fill:#344A5E;" d="M222.933,316.106l-102.4-11.733l-8.533,19.2C103.467,324.64,218.667,320.373,222.933,316.106z"/>
<g>
	<path id="SVGCleanerId_0_1_" style="fill:#415A6B;" d="M140.8,323.573l4.267-3.2l77.867-3.2c0,0,1.067,6.4-5.333,8.533
		c-6.4,2.133-73.6,8.533-73.6,8.533L140.8,323.573z"/>
</g>
<g>
	<path id="SVGCleanerId_1_1_" style="fill:#344A5E;" d="M22.4,306.506l121.6,12.8l-1.067,12.8l-115.2-12.8
		c-1.067,0-2.133-1.067-3.2-2.133L22.4,306.506z"/>
</g>
<g>
	<path id="SVGCleanerId_2_1_" style="fill:#344A5E;" d="M0,199.84c0,0,2.133-4.267,9.6-4.267c6.4,0,115.2,8.533,115.2,8.533
		s4.267,0,5.333,6.4C132.267,219.04,147.2,315.04,147.2,318.24c0,3.2-3.2,3.2-6.4,4.267s-116.267-12.8-116.267-12.8
		c-2.133-1.067-3.2,0-5.333-7.467C16,289.44,0,199.84,0,199.84z"/>
</g>
<g>
	<path id="SVGCleanerId_3_1_" style="fill:#415A6B;" d="M0,200.906c0,0,0-4.267,6.4-4.267s114.133,8.533,114.133,8.533
		s4.267,0,5.333,6.4c2.133,8.533,20.267,103.467,20.267,106.667c0,3.2-3.2,3.2-6.4,3.2c-3.2,1.067-115.2-12.8-115.2-12.8
		c-2.133-1.067-3.2,0-5.333-7.467C14.933,290.506,0,200.906,0,200.906z"/>
</g>
<g>
	
		<ellipse transform="matrix(0.2516 -0.9678 0.9678 0.2516 156.681 446.5026)" style="fill:#FFD15C;" cx="367.052" cy="121.94" rx="12.8" ry="7.466"/>
	<path style="fill:#FFD15C;" d="M280.533,313.973L280.533,313.973c-5.333,2.133-10.667,5.333-11.733,5.333
		c-2.133,1.067-1.067,1.067-5.333,3.2c-3.2,2.133-13.867,0-13.867,0c-1.067,1.067-7.467,0-8.533-1.067
		c-1.067,0-2.133-1.067-3.2-2.133c-1.067-1.067-6.4-7.467-6.4-9.6s1.067-5.333,1.067-7.467c0-1.067,0-3.2,0-5.333
		c0-1.067,3.2-3.2,3.2-4.267c0-1.067-1.067-3.2,0-5.333c1.067-2.133,3.2-3.2,4.267-3.2c1.067,0,2.133-1.067,2.133-1.067
		c0-1.067,0-1.067,1.067-3.2c1.067-2.133,6.4-2.133,9.6,0c3.2,2.133,10.667,5.333,10.667,5.333s1.067,0,2.133,0
		c1.067,0,2.133,0,4.267,1.067c3.2,1.067,3.2,3.2,4.267,7.467c0,4.267,2.133,5.333,2.133,5.333l0,0l0,0c0,0,1.067,1.067,2.133,1.067
		l0,0c2.133,1.067,3.2,2.133,3.2,3.2C282.667,309.706,281.6,311.84,280.533,313.973z"/>
</g>
<g>
	<path style="fill:#F7B64C;" d="M261.333,288.373c0,0-2.133,0-4.267,0s-2.133,3.2-2.133,4.267c0,2.133,2.133,4.267,4.267,5.333
		c1.067,1.067,2.133,1.067,5.333,2.133c3.2,1.067,3.2,1.067,3.2,1.067c-2.133,0-4.267-1.067-7.467-2.133c0,0-2.133-1.067-4.267-3.2
		c-2.133-2.133-2.133-3.2-2.133-5.333s0-2.133-1.067-4.267s0-2.133,1.067-1.067c1.067,1.067,1.067,1.067,1.067,2.133
		c0,0,0-1.067,0-3.2c0,0,2.133,1.067,3.2,3.2C257.067,288.373,260.267,287.306,261.333,288.373z"/>
	<path style="fill:#F7B64C;" d="M260.267,299.04c2.133,1.067,3.2,2.133,4.267,4.267c1.067,2.133,1.067,4.267-1.067,6.4v-1.067
		c1.067,2.133,0,4.267-1.067,5.333c-1.067,1.067-3.2,2.133-4.267,2.133l0,0c-1.067,3.2-3.2,4.267-6.4,4.267l0,0
		c0,1.067-1.067,2.133-2.133,3.2c1.067-1.067,2.133-2.133,2.133-3.2l0,0l0,0c2.133,0,5.333-2.133,5.333-4.267l0,0l0,0
		c1.067,0,3.2-1.067,4.267-2.133c1.067-1.067,1.067-3.2,1.067-4.267l0,0l0,0c1.067-1.067,1.067-3.2,1.067-5.333
		C263.467,302.24,261.333,300.106,260.267,299.04z"/>
	<path style="fill:#F7B64C;" d="M263.467,308.64c0,0-2.133,2.133-4.267,0c-3.2-1.067-6.4-3.2-8.533-6.4
		c-1.067-1.067-2.133-3.2-3.2-4.267c-1.067-1.067-2.133-3.2-3.2-4.267c-1.067-3.2,0-5.333,0-5.333s0,2.133,1.067,4.267
		c0,1.067,2.133,2.133,3.2,4.267c1.067,1.067,2.133,3.2,3.2,4.267c2.133,3.2,5.333,5.333,8.533,6.4
		C261.333,310.773,263.467,309.706,263.467,308.64z"/>
	<path style="fill:#F7B64C;" d="M258.133,315.04c0,0-2.133,0-4.267,0c-2.133-1.067-5.333-3.2-7.467-5.333
		c-1.067-1.067-3.2-2.133-3.2-3.2c-1.067-1.067-2.133-3.2-2.133-4.267c-1.067-2.133-2.133-4.267-2.133-4.267s1.067,1.067,2.133,3.2
		c1.067,1.067,1.067,2.133,2.133,4.267c1.067,1.067,2.133,2.133,3.2,3.2c3.2,2.133,5.333,4.267,7.467,5.333
		C257.067,316.106,258.133,315.04,258.133,315.04z"/>
	<path style="fill:#F7B64C;" d="M252.8,319.306c0,0-1.067,0-3.2,0c-2.133,0-4.267,0-6.4-2.133c-2.133-2.133-3.2-4.267-4.267-6.4
		c-1.067-2.133-1.067-3.2-1.067-3.2s1.067,1.067,2.133,2.133c1.067,1.067,2.133,4.267,4.267,5.333
		c2.133,2.133,4.267,2.133,6.4,2.133C251.733,319.306,252.8,319.306,252.8,319.306z"/>
</g>
<path style="fill:#FFD15C;" d="M222.933,308.64c-7.467,7.467-18.133,8.533-23.467,6.4c-5.333-3.2-5.333-12.8-5.333-12.8
	s-2.133,3.2-4.267,5.333c-2.133,2.133-5.333,0-5.333,0s2.133-4.267,3.2-6.4c0-2.133,1.067-3.2,2.133-4.267v-1.067
	c0,0-1.067,0-2.133,0c-2.133,0-4.267,0-4.267,0s-6.4,6.4-7.467,7.467s-4.267,7.467-7.467,5.333c-3.2-2.133,0-6.4,0-7.467l1.067-3.2
	c0,0-5.333,7.467-7.467,9.6c-1.067,2.133-4.267,5.333-7.467,3.2c-2.133-2.133,0-6.4,0-6.4s-3.2,5.333-5.333,2.133
	c-2.133-3.2,1.067-8.533,2.133-9.6c1.067-1.067,6.4-8.533,7.467-9.6c1.067-1.067,1.067-2.133,3.2-2.133s7.467,1.067,7.467,1.067
	s0,0,2.133,0c2.133,0,6.4,1.067,6.4,1.067s1.067-2.133,3.2-2.133c2.133,0,4.267,3.2,5.333,5.333c0,0,0,1.067,1.067,1.067
	c1.067,1.067,4.267,3.2,4.267,3.2c1.067-2.133,2.133-3.2,4.267-3.2c2.133,0,3.2,3.2,3.2,3.2c3.2,0,7.467,1.067,12.8,4.267
	C217.6,301.173,220.8,304.373,222.933,308.64z"/>
<rect x="16" y="348.106" style="fill:#CED6E0;" width="496" height="114.133"/>
<polygon style="fill:#E8EAE9;" points="357.333,308.64 357.333,348.106 512,348.106 512,309.706 "/>
<rect x="326.4" y="348.106" style="fill:#CED6E0;" width="185.6" height="114.133"/>
<g>
</g>
<g>
</g>
<g>
</g>
<g>
</g>
<g>
</g>
<g>
</g>
<g>
</g>
<g>
</g>
<g>
</g>
<g>
</g>
<g>
</g>
<g>
</g>
<g>
</g>
<g>
</g>
<g>
</g>
</svg>
