<svg width="21" height="21" viewBox="0 0 21 21" fill="none" xmlns="http://www.w3.org/2000/svg">
<path d="M9.31337 14.8748H11.0634C12.7522 14.8748 14.126 13.5011 14.126 11.8123V7.01627L20.1295 0.739752C20.2957 0.564734 20.2905 0.288242 20.1155 0.121099C19.9405 -0.046043 19.664 -0.0390292 19.4968 0.135086L0.246412 20.2606C0.07927 20.4347 0.0854225 20.7129 0.260399 20.8792C0.345262 20.9597 0.453792 21 0.563142 21C0.678645 21 0.793286 20.9545 0.879011 20.8652L5.87889 15.6379C6.56928 16.2399 7.45216 16.6249 8.43832 16.6249H9.75085V20.125H6.68827C6.44676 20.125 6.25075 20.321 6.25075 20.5625C6.25075 20.804 6.44676 21 6.68827 21H13.6884C13.9299 21 14.126 20.804 14.126 20.5625C14.126 20.321 13.9299 20.125 13.6884 20.125H10.6259V16.6248H11.9384C14.1093 16.6248 15.876 14.8582 15.876 12.6873V8.31219C15.876 8.07068 15.68 7.87466 15.4385 7.87466C15.1969 7.87466 15.0009 8.07068 15.0009 8.31219V12.6873C15.0009 14.376 13.6272 15.7498 11.9383 15.7498H8.43828C7.68665 15.7498 7.01201 15.4619 6.48085 15.0087L7.33576 14.1153C7.86959 14.5791 8.55124 14.8748 9.31337 14.8748Z" fill="black" fill-opacity="0.5"/>
</svg>
