<svg xmlns="http://www.w3.org/2000/svg" xmlns:xlink="http://www.w3.org/1999/xlink" width="1080" height="1080" viewBox="0 0 1080 1080">
  <defs>
    <clipPath id="clip-receive">
      <rect width="1080" height="1080"/>
    </clipPath>
  </defs>
  <g id="receive" clip-path="url(#clip-receive)">
    <g id="telephone">
      <circle id="Ellipse_1" data-name="Ellipse 1" cx="540" cy="540" r="540" fill="#0ce25a"/>
      <path id="Path_1" data-name="Path 1" d="M685.75,527.4c-58.253,0-113.8-12.69-165.037-37.732a33.808,33.808,0,0,0-45.225,15.66l-24.3,50.287a475.266,475.266,0,0,1-175.3-175.3l50.355-24.3a33.808,33.808,0,0,0,15.66-45.225c-25.11-51.165-37.8-106.717-37.8-165.038A33.762,33.762,0,0,0,270.355,112H145.75A33.762,33.762,0,0,0,112,145.75C112,462.122,369.377,719.5,685.75,719.5a33.762,33.762,0,0,0,33.75-33.75v-124.6A33.762,33.762,0,0,0,685.75,527.4Z" transform="translate(124.25 124.25)" fill="#fafafa"/>
    </g>
  </g>
</svg>
